<?xml version="1.0" encoding="UTF-8" standalone="no"?>
<!DOCTYPE svg PUBLIC "-//W3C//DTD SVG 1.1//EN" "http://www.w3.org/Graphics/SVG/1.1/DTD/svg11.dtd">
<svg width="100%" height="100%" viewBox="0 0 32 32" version="1.1" xmlns="http://www.w3.org/2000/svg" xmlns:xlink="http://www.w3.org/1999/xlink" xml:space="preserve" xmlns:serif="http://www.serif.com/" style="fill-rule:evenodd;clip-rule:evenodd;stroke-linejoin:round;stroke-miterlimit:2;">
    <circle cx="16" cy="16" r="15" style="fill:#b3f2a6;"/>
    <path d="M16,1c8.279,0 15,6.721 15,15c0,8.279 -6.721,15 -15,15c-8.279,0 -15,-6.721 -15,-15c0,-8.279 6.721,-15 15,-15Zm0,2c-7.175,0 -13,5.825 -13,13c0,7.175 5.825,13 13,13c7.175,0 13,-5.825 13,-13c0,-7.175 -5.825,-13 -13,-13Z" style="fill:#005900;"/>
    <path d="M13.845,10.746l-4.327,-0l-1.527,5.691c-0.8,2.742 0.949,4.787 3.394,4.787c2.283,0 5.247,-1.897 5.958,-4.52l1.63,-5.958l-1.156,-0l-1.615,5.824c-0.193,0.816 -1.171,1.823 -2.46,1.823c-1.156,0 -1.69,-0.874 -1.438,-1.823l1.541,-5.824Zm0.312,10.493c1.067,-0.533 2.238,-1.112 3.483,-3.453c0.859,1.26 3.319,0.459 3.779,-1.23l1.556,-5.81l1.23,-0l-1.586,5.824c-0.489,1.675 -2.475,4.714 -6.165,4.684l-2.297,-0.015Z" style="fill:#005900;fill-rule:nonzero;"/>
</svg>
