<?xml version="1.0" encoding="UTF-8" standalone="no"?>
<!DOCTYPE svg PUBLIC "-//W3C//DTD SVG 1.1//EN" "http://www.w3.org/Graphics/SVG/1.1/DTD/svg11.dtd">
<svg width="100%" height="100%" viewBox="0 0 310 36" version="1.1" xmlns="http://www.w3.org/2000/svg" xmlns:xlink="http://www.w3.org/1999/xlink" xml:space="preserve" xmlns:serif="http://www.serif.com/" style="fill-rule:evenodd;clip-rule:evenodd;stroke-linejoin:round;stroke-miterlimit:2;">
    <g transform="matrix(4.19572,0,0,4.19572,-578.352,-713.829)">
        <g transform="matrix(12,0,0,12,137.426,178.605)">
            <path d="M0.443,-0.7L0.151,-0.7L0.048,-0.316C-0.006,-0.131 0.112,0.007 0.277,0.007C0.431,0.007 0.631,-0.121 0.679,-0.298L0.789,-0.7L0.711,-0.7L0.602,-0.307C0.589,-0.252 0.523,-0.184 0.436,-0.184C0.358,-0.184 0.322,-0.243 0.339,-0.307L0.443,-0.7ZM0.464,0.008C0.536,-0.028 0.615,-0.067 0.699,-0.225C0.757,-0.14 0.923,-0.194 0.954,-0.308L1.059,-0.7L1.142,-0.7L1.035,-0.307C1.002,-0.194 0.868,0.011 0.619,0.009L0.464,0.008Z" style="fill-rule:nonzero;"/>
        </g>
        <g transform="matrix(12,0,0,12,150.038,178.605)">
            <path d="M0.452,-0.705C0.237,-0.705 0.116,-0.567 0.07,-0.397L0.05,-0.323L-0.036,-0L0.258,-0L0.362,-0.389C0.381,-0.461 0.443,-0.52 0.529,-0.52C0.596,-0.52 0.632,-0.465 0.618,-0.396C0.605,-0.318 0.525,-0.293 0.455,-0.292L0.402,-0.291C0.388,-0.291 0.378,-0.281 0.378,-0.267C0.378,-0.254 0.388,-0.243 0.402,-0.243C0.445,-0.243 0.529,-0.248 0.545,-0.225C0.557,-0.211 0.56,-0.201 0.55,-0.163L0.509,-0L0.572,-0L0.682,-0.397C0.729,-0.568 0.616,-0.705 0.452,-0.705Z" style="fill-rule:nonzero;"/>
        </g>
        <g transform="matrix(12,0,0,12,158.234,178.605)">
            <path d="M-0.037,-0L0.05,-0.316L0.153,-0.7L0.445,-0.7L0.341,-0.307C0.324,-0.243 0.36,-0.184 0.438,-0.184C0.525,-0.184 0.596,-0.252 0.609,-0.307L0.716,-0.701L0.787,-0.701L0.677,-0.298C0.63,-0.123 0.438,-0 0.285,-0L-0.037,-0Z" style="fill-rule:nonzero;"/>
        </g>
        <g transform="matrix(12,0,0,12,166.706,178.605)">
            <path d="M0.555,-0L0.612,-0.191L0.457,-0.191C0.412,-0.191 0.311,-0.23 0.364,-0.368C0.415,-0.5 0.512,-0.511 0.545,-0.504C0.574,-0.498 0.62,-0.432 0.446,-0.309C0.562,-0.329 0.679,-0.368 0.701,-0.492C0.72,-0.597 0.632,-0.706 0.465,-0.706C0.393,-0.706 0.144,-0.673 0.047,-0.367C-0.054,-0.049 0.194,-0 0.262,-0L0.555,-0Z" style="fill-rule:nonzero;"/>
        </g>
        <g transform="matrix(12,0,0,12,174.83,178.605)">
            <path d="M-0.036,-0L0.151,-0.702L0.453,-0.702C0.585,-0.707 0.73,-0.599 0.684,-0.412C0.638,-0.225 0.465,-0.209 0.315,-0.209L0.279,-0.081L0.463,-0.081C0.536,-0.081 0.641,-0.147 0.593,-0.231C0.621,-0.244 0.639,-0.26 0.647,-0.275C0.684,-0.244 0.718,-0.019 0.403,-0L-0.036,-0ZM0.337,-0.291L0.473,-0.29C0.596,-0.287 0.697,-0.466 0.585,-0.509C0.462,-0.546 0.38,-0.453 0.363,-0.39L0.337,-0.291Z" style="fill-rule:nonzero;"/>
        </g>
        <g transform="matrix(12,0,0,12,183.17,178.605)">
            <path d="M0.555,-0L0.612,-0.191L0.457,-0.191C0.412,-0.191 0.311,-0.23 0.364,-0.368C0.415,-0.5 0.512,-0.511 0.545,-0.504C0.574,-0.498 0.62,-0.432 0.446,-0.309C0.562,-0.329 0.679,-0.368 0.701,-0.492C0.72,-0.597 0.632,-0.706 0.465,-0.706C0.393,-0.706 0.144,-0.673 0.047,-0.367C-0.054,-0.049 0.194,-0 0.262,-0L0.555,-0Z" style="fill-rule:nonzero;"/>
        </g>
        <g transform="matrix(12,0,0,12,191.174,178.605)">
            <path d="M0.555,-0L0.612,-0.191L0.457,-0.191C0.412,-0.191 0.311,-0.23 0.364,-0.368C0.415,-0.5 0.512,-0.511 0.545,-0.504C0.574,-0.498 0.62,-0.432 0.446,-0.309C0.562,-0.329 0.679,-0.368 0.701,-0.492C0.72,-0.597 0.632,-0.706 0.465,-0.706C0.393,-0.706 0.144,-0.673 0.047,-0.367C-0.054,-0.049 0.194,-0 0.262,-0L0.555,-0Z" style="fill-rule:nonzero;"/>
        </g>
        <g transform="matrix(12,0,0,12,199.298,178.605)">
            <path d="M0.752,-0.492C0.746,-0.561 0.721,-0.631 0.666,-0.678C0.825,-0.743 1.077,-0.678 1.015,-0.395L0.904,-0L0.825,-0L0.932,-0.39C0.96,-0.468 0.884,-0.567 0.752,-0.492ZM0.155,-0.701L-0.037,-0L0.251,-0L0.355,-0.389C0.37,-0.436 0.421,-0.516 0.525,-0.516C0.623,-0.516 0.625,-0.428 0.61,-0.373L0.508,-0.001L0.588,-0.001L0.698,-0.399C0.731,-0.489 0.686,-0.703 0.485,-0.702L0.155,-0.701Z" style="fill-rule:nonzero;"/>
        </g>
    </g>
</svg>
